<?xml version="1.0" encoding="UTF-8"?>
<svg width="2408px" height="110px" viewBox="0 0 2408 110" version="1.1" xmlns="http://www.w3.org/2000/svg" xmlns:xlink="http://www.w3.org/1999/xlink">
    <title>header-bg</title>
    <defs>
        <rect id="path-1" x="0" y="0" width="2408" height="110"></rect>
    </defs>
    <g id="页面-1" stroke="none" stroke-width="1" fill="none" fill-rule="evenodd">
        <g id="header-bg">
            <mask id="mask-2" fill="white">
                <use xlink:href="#path-1"></use>
            </mask>
            <g id="base"></g>
            <g id="content" mask="url(#mask-2)">
                <g transform="translate(-25.000000, 0.000000)">
                    <polygon id="base" fill="#003471" points="1672.358 51.324 1606.083 102.006 846.709 102.006 786.628 51.324 0 51.324 0 0 2458.985 0 2458.985 51.324"></polygon>
                    <g id="group_2" stroke-width="1" fill="none" transform="translate(85.000000, 50.343000)">
                        <polyline id="rect_3" stroke="#038BFF" points="1869.408 2.014 1610.108 2.014 1531.018 58.414 776.163 58.414 699.078 2.014 438.778 2.014"></polyline>
                        <g id="编组" transform="translate(1460.938000, 44.318000)" fill="#FFFFFF" fill-rule="nonzero" stroke="#000000">
                            <polygon id="rect_4" points="19.72 0 89.11 0 69.39 14.1 0 14.1"></polygon>
                        </g>
                        <g id="rect_4-link" transform="translate(1460.938000, 44.318000)" stroke="#000000">
                            <polygon id="rect_4" points="19.72 0 89.11 0 69.39 14.1 0 14.1"></polygon>
                        </g>
                        <polygon id="rect_4_copy_8" stroke="#038BFF" fill-opacity="0" fill="#FFFFFF" points="1732.358 24.174 2288.358 24.174 2282.058 28.203 1726.058 28.203"></polygon>
                        <polygon id="rect_4_copy_7" stroke="#038BFF" fill-opacity="0" fill="#FFFFFF" points="1609.408 1.007 1870.408 1.007 1865.108 5.036 1604.108 5.036"></polygon>
                        <polygon id="rect_4_copy_12" stroke="#038BFF" fill-opacity="0" fill="#FFFFFF" points="698.783 1.007 437.783 1.007 443.083 5.036 704.083 5.036"></polygon>
                        <polygon id="shape_23" stroke="#038BFF" fill="#FFFFFF" points="2036.418 24.174 2036.418 25.18 1732.068 25.18 1732.068 24.174"></polygon>
                        <g id="编组" transform="translate(833.228000, 50.361000)" fill="#FFFFFF" fill-rule="nonzero" stroke="#000000">
                            <polygon id="rect_4_copy_3" points="0 1.42108547e-14 638.73 1.007 629.03 8.057 11.012 8.057"></polygon>
                        </g>
                        <g id="rect_4_copy_3-link" transform="translate(833.228000, 50.361000)" stroke="#000000">
                            <polygon id="rect_4_copy_3" points="0 1.42108547e-14 638.73 1.007 629.03 8.057 11.012 8.057"></polygon>
                        </g>
                        <g id="编组" transform="translate(757.141000, 44.318000)" fill="#FFFFFF" fill-rule="nonzero" stroke="#000000">
                            <polygon id="rect_4_copy" points="69.389 0 0 0 19.713 14.1 89.101 14.1"></polygon>
                        </g>
                        <g id="rect_4_copy-link" transform="translate(757.141000, 44.318000)" stroke="#000000">
                            <polygon id="rect_4_copy" points="69.389 0 0 0 19.713 14.1 89.101 14.1"></polygon>
                        </g>
                        <polygon id="shape_20" fill="#00FCF9" points="790.178 57.412 790.178 59.427 776.163 59.427 776.163 57.412"></polygon>
                        <polygon id="shape_20_copy" fill="#00FCF9" points="776.496 57.558 775.361 59.218 763.816 51.218 764.951 49.558"></polygon>
                        <path d="M1517.008,57.367 L1517.008,59.427 L1530.838,59.427 L1530.838,57.367 L1517.008,57.367 Z M1530.508,57.516 L1531.628,59.216 L1543.028,51.042 L1541.908,49.342 L1530.508,57.516 Z" id="shape_20_copy_2" fill="#00FCF9"></path>
                        <path d="M1623.128,2.059 L1623.128,0 L1609.298,0 L1609.298,2.059 L1623.128,2.059 Z M1609.618,1.91 L1608.498,0.21 L1597.108,8.384 L1598.228,10.084 L1609.618,1.91 Z" id="shape_20_copy_3" fill="#00FCF9"></path>
                        <polygon id="rect_4_copy_11" stroke="#038BFF" fill-opacity="0" fill="#FFFFFF" points="424.191 24.174 1.42108547e-14 24.174 6.3 28.203 430.49 28.203"></polygon>
                        <polygon id="shape_23_copy" stroke="#038BFF" fill="#FFFFFF" points="251.941 24.176 251.941 25.415 556.288 25.415 556.288 24.176"></polygon>
                        <path d="M686.06,2.059 L686.06,0 L699.893,0 L699.893,2.059 L686.06,2.059 Z M699.56,1.91 L700.68,0.21 L712.078,8.388 L710.958,10.088 L699.56,1.91 Z" id="shape_20_copy_4" fill="#00FCF9"></path>
                    </g>
                </g>
            </g>
        </g>
    </g>
</svg>