<svg id="header-bg" xmlns="http://www.w3.org/2000/svg" xmlns:xlink="http://www.w3.org/1999/xlink" width="2289.349" height="104.781" viewBox="0 0 2289.349 104.781">
  <defs>
    <style>
      .cls-1 {
        fill: none;
      }

      .cls-1, .cls-2, .cls-3, .cls-4, .cls-5, .cls-6 {
        stroke: #038bff;
        stroke-width: 1px;
      }

      .cls-1, .cls-2, .cls-3, .cls-4, .cls-5, .cls-6, .cls-7, .cls-8 {
        fill-rule: evenodd;
      }

      .cls-2, .cls-3, .cls-4, .cls-5, .cls-6 {
        fill: #fff;
      }

      .cls-2, .cls-3, .cls-5, .cls-6 {
        fill-opacity: 0;
      }

      .cls-2 {
        filter: url(#filter);
      }

      .cls-5 {
        filter: url(#filter-2);
      }

      .cls-6 {
        filter: url(#filter-3);
      }

      .cls-7 {
        fill: #00fcf9;
      }

      .cls-8 {
        fill: #038bff;
        fill-opacity: 0.72;
        opacity: 0.2;
      }
    </style>
    <filter id="filter" x="1511.97" y="89.656" width="89.09" height="14.125" filterUnits="userSpaceOnUse">
      <feGaussianBlur result="blur" stdDeviation="6.667" in="SourceAlpha"/>
      <feFlood result="flood" flood-color="#009bec" flood-opacity="0.3"/>
      <feComposite result="composite-2" operator="out" in2="blur"/>
      <feComposite result="composite" operator="in" in2="SourceAlpha"/>
      <feBlend result="blend" in2="SourceGraphic"/>
    </filter>
    <filter id="filter-2" x="884.25" y="95.719" width="638.72" height="8.062" filterUnits="userSpaceOnUse">
      <feGaussianBlur result="blur" stdDeviation="6.667" in="SourceAlpha"/>
      <feFlood result="flood" flood-color="#009bec" flood-opacity="0.3"/>
      <feComposite result="composite-2" operator="out" in2="blur"/>
      <feComposite result="composite" operator="in" in2="SourceAlpha"/>
      <feBlend result="blend" in2="SourceGraphic"/>
    </filter>
    <filter id="filter-3" x="808.156" y="89.656" width="89.094" height="14.125" filterUnits="userSpaceOnUse">
      <feGaussianBlur result="blur" stdDeviation="6.667" in="SourceAlpha"/>
      <feFlood result="flood" flood-color="#009bec" flood-opacity="0.3"/>
      <feComposite result="composite-2" operator="out" in2="blur"/>
      <feComposite result="composite" operator="in" in2="SourceAlpha"/>
      <feBlend result="blend" in2="SourceGraphic"/>
    </filter>
  </defs>
  <g id="group_2" data-name="组 2">
    <path id="rect_3" data-name="rect 3" class="cls-1" d="M1920.43,47.364h-259.3l-79.09,56.4H827.185L750.1,47.364H489.8" transform="translate(-50.531)"/>
    <g transform="translate(-50.531)" style="fill: #fff; filter: url(#filter)">
      <path id="rect_4" data-name="rect 4" class="cls-2" d="M1531.68,89.668h69.39l-19.72,14.1h-69.39Z" style="stroke: inherit; filter: none; fill: inherit"/>
    </g>
    <use transform="translate(-50.531)" xlink:href="#rect_4" style="stroke: #038bff; filter: none; fill: none"/>
    <path id="rect_4_copy_8" data-name="rect_4_copy_ 8" class="cls-3" d="M1783.38,69.524h556l-6.3,4.029h-556Z" transform="translate(-50.531)"/>
    <path id="rect_4_copy_7" data-name="rect_4_copy_ 7" class="cls-3" d="M1660.43,46.357h261l-5.3,4.029h-261Z" transform="translate(-50.531)"/>
    <path id="rect_4_copy_12" data-name="rect_4_copy_ 12" class="cls-3" d="M749.805,46.357h-261l5.3,4.029h261Z" transform="translate(-50.531)"/>
    <path id="shape_23" data-name="shape 23" class="cls-4" d="M2087.44,69.524V70.53H1783.09V69.524h304.35Z" transform="translate(-50.531)"/>
    <g transform="translate(-50.531)" style="fill: #fff; filter: url(#filter-2)">
      <path id="rect_4_copy_3" data-name="rect_4_copy_ 3" class="cls-5" d="M884.25,95.711l638.73,1.007-9.7,7.05H895.262Z" style="stroke: inherit; filter: none; fill: inherit"/>
    </g>
    <use transform="translate(-50.531)" xlink:href="#rect_4_copy_3" style="stroke: #038bff; filter: none; fill: none"/>
    <g transform="translate(-50.531)" style="fill: #fff; filter: url(#filter-3)">
      <path id="rect_4_copy" data-name="rect_4_copy_" class="cls-6" d="M877.552,89.668H808.163l19.713,14.1h69.388Z" style="stroke: inherit; filter: none; fill: inherit"/>
    </g>
    <use transform="translate(-50.531)" xlink:href="#rect_4_copy" style="stroke: #038bff; filter: none; fill: none"/>
    <path id="shape_20" data-name="shape 20" class="cls-7" d="M841.2,102.762v2.015H827.185v-2.015H841.2Z" transform="translate(-50.531)"/>
    <path id="shape_20_copy" data-name="shape 20 copy" class="cls-7" d="M827.518,102.908l-1.135,1.66-11.545-8,1.135-1.66Z" transform="translate(-50.531)"/>
    <path id="shape_20_copy_2" data-name="shape 20 copy 2" class="cls-7" d="M1568.03,102.717v2.06h13.83v-2.06h-13.83Zm13.5,0.149,1.12,1.7,11.4-8.174-1.12-1.7Z" transform="translate(-50.531)"/>
    <path id="shape_20_copy_3" data-name="shape 20 copy 3" class="cls-7" d="M1674.15,47.409V45.35h-13.83v2.059h13.83Zm-13.51-.149-1.12-1.7-11.39,8.174,1.12,1.7Z" transform="translate(-50.531)"/>
    <path id="rect_4_copy_11" data-name="rect_4_copy_ 11" class="cls-3" d="M475.213,69.524H51.022l6.3,4.029H481.512Z" transform="translate(-50.531)"/>
    <path id="shape_23_copy" data-name="shape 23 copy" class="cls-4" d="M302.963,69.526v1.239H607.31V69.526H302.963Z" transform="translate(-50.531)"/>
    <path id="shape_20_copy_4" data-name="shape 20 copy 4" class="cls-7" d="M737.082,47.409V45.35h13.833v2.059H737.082Zm13.5-.149,1.12-1.7L763.1,53.738l-1.12,1.7Z" transform="translate(-50.531)"/>
  </g>
  <path id="shape_24" data-name="shape 24" class="cls-8" d="M489.986,50.49h261.1l59,43.973H875.36l8.786,5.025L1519.32,102l11.3-7.538h67.79l60.25-45.229h262.35V-44.993H491.241Z" transform="translate(-50.531)"/>
</svg>
